<svg id="visual" viewBox="0 0 3840 300" width="3840" height="300" xmlns="http://www.w3.org/2000/svg" xmlns:xlink="http://www.w3.org/1999/xlink" version="1.1"><rect x="0" y="0" width="3840" height="300" fill="#242424"></rect><path d="M0 215L58.2 220C116.3 225 232.7 235 349 232C465.3 229 581.7 213 698 209.8C814.3 206.7 930.7 216.3 1047 216C1163.3 215.7 1279.7 205.3 1396 193.7C1512.3 182 1628.7 169 1745.2 164.5C1861.7 160 1978.3 164 2094.8 174.3C2211.3 184.7 2327.7 201.3 2444 206.7C2560.3 212 2676.7 206 2793 203C2909.3 200 3025.7 200 3142 206.5C3258.3 213 3374.7 226 3491 231.7C3607.3 237.3 3723.7 235.7 3781.8 234.8L3840 234L3840 0L3781.8 0C3723.7 0 3607.3 0 3491 0C3374.7 0 3258.3 0 3142 0C3025.7 0 2909.3 0 2793 0C2676.7 0 2560.3 0 2444 0C2327.7 0 2211.3 0 2094.8 0C1978.3 0 1861.7 0 1745.2 0C1628.7 0 1512.3 0 1396 0C1279.7 0 1163.3 0 1047 0C930.7 0 814.3 0 698 0C581.7 0 465.3 0 349 0C232.7 0 116.3 0 58.2 0L0 0Z" fill="#fae469"></path><path d="M0 131L58.2 134.2C116.3 137.3 232.7 143.7 349 149C465.3 154.3 581.7 158.7 698 155.7C814.3 152.7 930.7 142.3 1047 140.7C1163.3 139 1279.7 146 1396 150.7C1512.3 155.3 1628.7 157.7 1745.2 161.3C1861.7 165 1978.3 170 2094.8 169C2211.3 168 2327.7 161 2444 154.2C2560.3 147.3 2676.7 140.7 2793 137.8C2909.3 135 3025.7 136 3142 138.7C3258.3 141.3 3374.7 145.7 3491 151.2C3607.3 156.7 3723.7 163.3 3781.8 166.7L3840 170L3840 0L3781.8 0C3723.7 0 3607.3 0 3491 0C3374.7 0 3258.3 0 3142 0C3025.7 0 2909.3 0 2793 0C2676.7 0 2560.3 0 2444 0C2327.7 0 2211.3 0 2094.8 0C1978.3 0 1861.7 0 1745.2 0C1628.7 0 1512.3 0 1396 0C1279.7 0 1163.3 0 1047 0C930.7 0 814.3 0 698 0C581.7 0 465.3 0 349 0C232.7 0 116.3 0 58.2 0L0 0Z" fill="#ffab67"></path><path d="M0 168L58.2 168C116.3 168 232.7 168 349 163.8C465.3 159.7 581.7 151.3 698 152.3C814.3 153.3 930.7 163.7 1047 160C1163.3 156.3 1279.7 138.7 1396 135C1512.3 131.3 1628.7 141.7 1745.2 144C1861.7 146.3 1978.3 140.7 2094.8 133.7C2211.3 126.7 2327.7 118.3 2444 120.3C2560.3 122.3 2676.7 134.7 2793 141.7C2909.3 148.7 3025.7 150.3 3142 151.3C3258.3 152.3 3374.7 152.7 3491 146.3C3607.3 140 3723.7 127 3781.8 120.5L3840 114L3840 0L3781.8 0C3723.7 0 3607.3 0 3491 0C3374.7 0 3258.3 0 3142 0C3025.7 0 2909.3 0 2793 0C2676.7 0 2560.3 0 2444 0C2327.7 0 2211.3 0 2094.8 0C1978.3 0 1861.7 0 1745.2 0C1628.7 0 1512.3 0 1396 0C1279.7 0 1163.3 0 1047 0C930.7 0 814.3 0 698 0C581.7 0 465.3 0 349 0C232.7 0 116.3 0 58.2 0L0 0Z" fill="#ef7c7c"></path><path d="M0 120L58.2 121C116.3 122 232.7 124 349 125.3C465.3 126.7 581.7 127.3 698 126.7C814.3 126 930.7 124 1047 116.7C1163.3 109.3 1279.7 96.7 1396 98.2C1512.3 99.7 1628.7 115.3 1745.2 124.2C1861.7 133 1978.3 135 2094.8 129.5C2211.3 124 2327.7 111 2444 100.5C2560.3 90 2676.7 82 2793 80.8C2909.3 79.7 3025.7 85.3 3142 89.7C3258.3 94 3374.7 97 3491 95.5C3607.3 94 3723.7 88 3781.8 85L3840 82L3840 0L3781.8 0C3723.7 0 3607.3 0 3491 0C3374.7 0 3258.3 0 3142 0C3025.7 0 2909.3 0 2793 0C2676.7 0 2560.3 0 2444 0C2327.7 0 2211.3 0 2094.8 0C1978.3 0 1861.7 0 1745.2 0C1628.7 0 1512.3 0 1396 0C1279.7 0 1163.3 0 1047 0C930.7 0 814.3 0 698 0C581.7 0 465.3 0 349 0C232.7 0 116.3 0 58.2 0L0 0Z" fill="#ba608d"></path><path d="M0 52L58.2 53.5C116.3 55 232.7 58 349 58.5C465.3 59 581.7 57 698 61.8C814.3 66.7 930.7 78.3 1047 82.7C1163.3 87 1279.7 84 1396 85C1512.3 86 1628.7 91 1745.2 90.2C1861.7 89.3 1978.3 82.7 2094.8 76.3C2211.3 70 2327.7 64 2444 59.3C2560.3 54.7 2676.7 51.3 2793 53.7C2909.3 56 3025.7 64 3142 70.2C3258.3 76.3 3374.7 80.7 3491 81.8C3607.3 83 3723.7 81 3781.8 80L3840 79L3840 0L3781.8 0C3723.7 0 3607.3 0 3491 0C3374.7 0 3258.3 0 3142 0C3025.7 0 2909.3 0 2793 0C2676.7 0 2560.3 0 2444 0C2327.7 0 2211.3 0 2094.8 0C1978.3 0 1861.7 0 1745.2 0C1628.7 0 1512.3 0 1396 0C1279.7 0 1163.3 0 1047 0C930.7 0 814.3 0 698 0C581.7 0 465.3 0 349 0C232.7 0 116.3 0 58.2 0L0 0Z" fill="#72528a"></path><path d="M0 43L58.2 45.3C116.3 47.7 232.7 52.3 349 49C465.3 45.7 581.7 34.3 698 30C814.3 25.7 930.7 28.3 1047 29.2C1163.3 30 1279.7 29 1396 28.5C1512.3 28 1628.7 28 1745.2 32.3C1861.7 36.7 1978.3 45.3 2094.8 50.8C2211.3 56.3 2327.7 58.7 2444 59.2C2560.3 59.7 2676.7 58.3 2793 55.8C2909.3 53.3 3025.7 49.7 3142 48C3258.3 46.3 3374.7 46.7 3491 47C3607.3 47.3 3723.7 47.7 3781.8 47.8L3840 48L3840 0L3781.8 0C3723.7 0 3607.3 0 3491 0C3374.7 0 3258.3 0 3142 0C3025.7 0 2909.3 0 2793 0C2676.7 0 2560.3 0 2444 0C2327.7 0 2211.3 0 2094.8 0C1978.3 0 1861.7 0 1745.2 0C1628.7 0 1512.3 0 1396 0C1279.7 0 1163.3 0 1047 0C930.7 0 814.3 0 698 0C581.7 0 465.3 0 349 0C232.7 0 116.3 0 58.2 0L0 0Z" fill="#21426e"></path></svg>
